<svg width="512" height="512" viewBox="0 0 512 512" fill="none" xmlns="http://www.w3.org/2000/svg">
  <rect width="512" height="512" rx="128" fill="url(#bg)"/>
  <rect x="104" y="104" width="304" height="304" rx="92" fill="rgba(255,255,255,0.14)"/>
  <rect x="128" y="128" width="256" height="256" rx="80" fill="white" fill-opacity="0.12"/>
  <path d="M256 138C190.83 138 138 190.83 138 256C138 321.17 190.83 374 256 374C321.17 374 374 321.17 374 256C374 190.83 321.17 138 256 138Z" fill="url(#orb)" fill-opacity="0.28"/>
  <path d="M220 170C192.386 170 170 192.386 170 220V292C170 319.614 192.386 342 220 342H292C319.614 342 342 319.614 342 292V220C342 192.386 319.614 170 292 170H220Z" fill="white"/>
  <path d="M220 190H292C308.569 190 322 203.431 322 220V292C322 308.569 308.569 322 292 322H220C203.431 322 190 308.569 190 292V220C190 203.431 203.431 190 220 190Z" fill="url(#ig)"/>
  <circle cx="256" cy="256" r="41" stroke="white" stroke-width="16"/>
  <circle cx="300" cy="211" r="10" fill="white"/>
  <path d="M256 226V294" stroke="white" stroke-width="18" stroke-linecap="round"/>
  <path d="M227 269L256 299L285 269" stroke="white" stroke-width="18" stroke-linecap="round" stroke-linejoin="round"/>
  <path d="M212 328H300" stroke="white" stroke-width="16" stroke-linecap="round"/>
  <defs>
    <linearGradient id="bg" x1="56" y1="44" x2="454" y2="470" gradientUnits="userSpaceOnUse">
      <stop stop-color="#FF8A5B"/>
      <stop offset="0.42" stop-color="#F04797"/>
      <stop offset="1" stop-color="#5168FF"/>
    </linearGradient>
    <linearGradient id="ig" x1="190" y1="190" x2="322" y2="322" gradientUnits="userSpaceOnUse">
      <stop stop-color="#FF8A5B"/>
      <stop offset="0.55" stop-color="#F04797"/>
      <stop offset="1" stop-color="#6A5CFF"/>
    </linearGradient>
    <radialGradient id="orb" cx="0" cy="0" r="1" gradientUnits="userSpaceOnUse" gradientTransform="translate(256 256) rotate(90) scale(118)">
      <stop stop-color="white"/>
      <stop offset="1" stop-color="white" stop-opacity="0"/>
    </radialGradient>
  </defs>
</svg>
