<svg xmlns="http://www.w3.org/2000/svg" viewBox="0 0 64 64">
  <rect x="6" y="6" width="52" height="52" rx="16" fill="#101217" />
  <path
    d="M29 18h7.4c1.2 5 4.6 8.1 10.6 8.5v7.2c-3.6-.1-7-1.2-10.2-3.4v9.8c0 6.9-5.6 12.4-12.4 12.4S12 47 12 40.2s5.6-12.4 12.4-12.4c1 0 2.1.1 3 .4v7.3a6.7 6.7 0 0 0-2.8-.6 5.3 5.3 0 0 0-5.4 5.4 5.3 5.3 0 1 0 10.6 0V18z"
    fill="#25f4ee"
    transform="translate(-1 0)"
  />
  <path
    d="M29 18h7.4c1.2 5 4.6 8.1 10.6 8.5v7.2c-3.6-.1-7-1.2-10.2-3.4v9.8c0 6.9-5.6 12.4-12.4 12.4S12 47 12 40.2s5.6-12.4 12.4-12.4c1 0 2.1.1 3 .4v7.3a6.7 6.7 0 0 0-2.8-.6 5.3 5.3 0 0 0-5.4 5.4 5.3 5.3 0 1 0 10.6 0V18z"
    fill="#fe2c55"
    transform="translate(1 1)"
  />
  <path
    d="M29 18h7.4c1.2 5 4.6 8.1 10.6 8.5v7.2c-3.6-.1-7-1.2-10.2-3.4v9.8c0 6.9-5.6 12.4-12.4 12.4S12 47 12 40.2s5.6-12.4 12.4-12.4c1 0 2.1.1 3 .4v7.3a6.7 6.7 0 0 0-2.8-.6 5.3 5.3 0 0 0-5.4 5.4 5.3 5.3 0 1 0 10.6 0V18z"
    fill="#fff"
  />
</svg>
